<svg xmlns="http://www.w3.org/2000/svg" width="56" height="56" viewBox="0 0 56 56">
  <g id="Grupo_1078" data-name="Grupo 1078" transform="translate(-745 329) rotate(-90)">
    <g id="Trazado_4433" data-name="Trazado 4433" transform="translate(273 745)" fill="none">
      <path d="M28,0A28,28,0,1,1,0,28,28,28,0,0,1,28,0Z" stroke="none"/>
      <path d="M 28 3 C 24.62369918823242 3 21.34999084472656 3.660579681396484 18.26979064941406 4.963390350341797 C 15.29317092895508 6.222400665283203 12.61925888061523 8.025409698486328 10.32233047485352 10.32233047485352 C 8.025409698486328 12.61925888061523 6.222400665283203 15.29317092895508 4.963390350341797 18.26979064941406 C 3.660579681396484 21.34999084472656 3 24.62369918823242 3 28 C 3 31.37630081176758 3.660579681396484 34.65000915527344 4.963390350341797 37.73020935058594 C 6.222400665283203 40.70682907104492 8.025409698486328 43.38074111938477 10.32233047485352 45.67766952514648 C 12.61925888061523 47.97459030151367 15.29317092895508 49.7775993347168 18.26979064941406 51.0366096496582 C 21.34999084472656 52.33942031860352 24.62369918823242 53 28 53 C 31.37630081176758 53 34.65000915527344 52.33942031860352 37.73020935058594 51.0366096496582 C 40.70682907104492 49.7775993347168 43.38074111938477 47.97459030151367 45.67766952514648 45.67766952514648 C 47.97459030151367 43.38074111938477 49.7775993347168 40.70682907104492 51.0366096496582 37.73020935058594 C 52.33942031860352 34.65000915527344 53 31.37630081176758 53 28 C 53 24.62369918823242 52.33942031860352 21.34999084472656 51.0366096496582 18.26979064941406 C 49.7775993347168 15.29317092895508 47.97459030151367 12.61925888061523 45.67766952514648 10.32233047485352 C 43.38074111938477 8.025409698486328 40.70682907104492 6.222400665283203 37.73020935058594 4.963390350341797 C 34.65000915527344 3.660579681396484 31.37630081176758 3 28 3 M 28 0 C 43.46397018432617 0 56 12.53602981567383 56 28 C 56 43.46397018432617 43.46397018432617 56 28 56 C 12.53602981567383 56 0 43.46397018432617 0 28 C 0 12.53602981567383 12.53602981567383 0 28 0 Z" stroke="none" fill="#fff"/>
    </g>
    <g id="ico_record" data-name="ico/record" transform="translate(277 749)">
      <path id="Trazado_4276" data-name="Trazado 4276" d="M0,0H48V48H0Z" fill="none" opacity="0.24"/>
      <circle id="Elipse_239" data-name="Elipse 239" cx="21" cy="21" r="21" transform="translate(3 3)" fill="#fff"/>
    </g>
  </g>
</svg>
