<svg xmlns="http://www.w3.org/2000/svg" width="923.997" height="665.999" viewBox="0 0 923.997 665.999">
  <path id="Sustracción_1" data-name="Sustracción 1" d="M-9327-6803h-924v-666h924v666Zm-465.5-567.137a135.205,135.205,0,0,0-34.89,4.593,144.517,144.517,0,0,0-32.5,13.174,165.8,165.8,0,0,0-29.406,20.845,194.669,194.669,0,0,0-25.622,27.608,225.822,225.822,0,0,0-21.14,33.461,254.464,254.464,0,0,0-15.962,38.4,277.647,277.647,0,0,0-10.087,42.439,295.291,295.291,0,0,0-3.518,45.565,295.291,295.291,0,0,0,3.518,45.565,277.6,277.6,0,0,0,10.087,42.439,254.443,254.443,0,0,0,15.962,38.4,225.771,225.771,0,0,0,21.14,33.461,194.643,194.643,0,0,0,25.622,27.607,165.8,165.8,0,0,0,29.406,20.846,144.552,144.552,0,0,0,32.5,13.174,135.2,135.2,0,0,0,34.89,4.593,135.207,135.207,0,0,0,34.891-4.593,144.55,144.55,0,0,0,32.5-13.174,165.844,165.844,0,0,0,29.406-20.846,194.6,194.6,0,0,0,25.621-27.607,225.675,225.675,0,0,0,21.141-33.461,254.443,254.443,0,0,0,15.962-38.4,277.559,277.559,0,0,0,10.087-42.439,295.291,295.291,0,0,0,3.518-45.565,295.291,295.291,0,0,0-3.518-45.565,277.592,277.592,0,0,0-10.087-42.439,254.464,254.464,0,0,0-15.962-38.4,225.725,225.725,0,0,0-21.141-33.461,194.6,194.6,0,0,0-25.621-27.608,165.813,165.813,0,0,0-29.406-20.845,144.538,144.538,0,0,0-32.5-13.174A135.207,135.207,0,0,0-9792.5-7370.139Z" transform="translate(10251 7469.001)" fill="rgba(49,49,49,0.6)"/>
</svg>
