<svg id="MujerConComputadora" xmlns="http://www.w3.org/2000/svg" width="492.853" height="301.447" viewBox="0 0 492.853 301.447">
  <rect id="Rectángulo_3303" data-name="Rectángulo 3303" width="434.2" height="289.364" rx="25.1" transform="translate(29.288 5.812)" fill="#5c5c5c"/>
  <rect id="Rectángulo_3304" data-name="Rectángulo 3304" width="402.158" height="246.694" transform="translate(45.347 27.147)" fill="#fff"/>
  <rect id="Rectángulo_3305" data-name="Rectángulo 3305" width="492.852" height="27.575" rx="10" transform="translate(0 273.841)" fill="#4a494a"/>
  <path id="Trazado_8605" data-name="Trazado 8605" d="M515.661,530.529S70.068,503,80.544,503H515.661c10.4,0,18.888,2.829,18.888,6.347v14.835C534.549,527.7,526.061,530.529,515.661,530.529Z" transform="translate(-41.697 -229.083)" fill="#303031" opacity="0.3"/>
  <circle id="Elipse_310" data-name="Elipse 310" cx="4.818" cy="4.818" r="4.818" transform="translate(241.57 11.318)" fill="#ededed"/>
  <g id="Grupo_1848" data-name="Grupo 1848" transform="translate(189.647 79.642)">
    <g id="Grupo_1847" data-name="Grupo 1847">
      <g id="Grupo_1640" data-name="Grupo 1640">
        <rect id="Rectángulo_2395" data-name="Rectángulo 2395" width="100.176" height="79.613" transform="translate(8.106 88.288)" fill="#323232"/>
        <rect id="Rectángulo_2396" data-name="Rectángulo 2396" width="23.018" height="18.888" transform="translate(45.271 125.223)" fill="#f8bc99"/>
        <path id="Trazado_5740" data-name="Trazado 5740" d="M355.2,418.947a20.188,20.188,0,0,1,4.818.459V412.6H337v18.353C339.447,424.224,345.565,418.947,355.2,418.947Z" transform="translate(-291.729 -287.454)" fill="#ce9a7d"/>
        <path id="Trazado_5741" data-name="Trazado 5741" d="M344.406,433.595H324.753s-39.382-1.988-46.953,37.7H391.435C383.788,431.607,344.406,433.595,344.406,433.595Z" transform="translate(-277.8 -292.39)" fill="#f8bc99"/>
        <path id="Trazado_5742" data-name="Trazado 5742" d="M384.641,323.853c0,32.5-19.5,58.882-47.182,58.882S290.2,356.353,290.2,323.853,309.776,265.2,337.459,265.2,384.641,291.429,384.641,323.853Z" transform="translate(-280.718 -252.771)" fill="#f8bc99"/>
        <g id="Grupo_1634" data-name="Grupo 1634" transform="translate(97.737 76.994)">
          <path id="Trazado_5743" data-name="Trazado 5743" d="M405.908,357.79c-1.071,5.047.841,9.788,4.129,10.4s6.882-3.059,7.8-8.106-.765-9.865-4.206-10.4S406.9,352.743,405.908,357.79Z" transform="translate(-405.61 -349.631)" fill="#f8bc99"/>
          <path id="Trazado_5744" data-name="Trazado 5744" d="M413.329,356.106l.612.229a1.147,1.147,0,0,1,.612.229l.535.535a1.224,1.224,0,0,1,.382.765,3.213,3.213,0,0,1,.229.918,10.014,10.014,0,0,1-.994,4.435,7.035,7.035,0,0,1-.994,1.606l-.688.382-.612.153a1.147,1.147,0,0,1-.612-.153c.076.153.382.229.459.382s.535.153.765.229a2.065,2.065,0,0,0,1.147-.229,5.658,5.658,0,0,0,2.065-1.759,4.359,4.359,0,0,0,1.224-2.447c0-.459.153-.994.153-1.529a4.741,4.741,0,0,0-.153-1.453,3.441,3.441,0,0,0-.612-1.3l-.459-.535-.535-.382-1.147-.382h-.765Z" transform="translate(-407.066 -351.082)" fill="#ce9a7d"/>
        </g>
        <g id="Grupo_1635" data-name="Grupo 1635" transform="translate(3.254 76.814)">
          <path id="Trazado_5745" data-name="Trazado 5745" d="M294.4,357.734c.994,5.047-.918,9.788-4.206,10.4s-6.882-3.059-7.876-8.259.918-9.712,4.206-10.4S293.407,352.687,294.4,357.734Z" transform="translate(-282.056 -349.397)" fill="#f8bc99"/>
          <path id="Trazado_5746" data-name="Trazado 5746" d="M289.056,356.106l-.688.229a1.452,1.452,0,0,0-.612.229.994.994,0,0,0-.459.535,2.3,2.3,0,0,0-.535.765c-.153.229,0,.612-.153.918a5.736,5.736,0,0,0,.306,2.218,5.887,5.887,0,0,0,.765,2.218,7.036,7.036,0,0,0,.994,1.606c.076.153.382.229.612.382l.612.153a1.682,1.682,0,0,0,.688-.153l-.535.382c-.153.153-.535.153-.765.229a2.065,2.065,0,0,1-1.147-.229,4.894,4.894,0,0,1-1.988-1.759,3.976,3.976,0,0,1-1.3-2.447,4.97,4.97,0,0,1-.153-1.529,4.742,4.742,0,0,1,.153-1.453,5.123,5.123,0,0,1,.612-1.3l.382-.535.688-.382.994-.382h.765Z" transform="translate(-282.676 -350.903)" fill="#ce9a7d"/>
        </g>
        <path id="Trazado_5747" data-name="Trazado 5747" d="M380.253,471.935H304.7c13.153-9.941,3.518-32.729,3.518-32.729a40.15,40.15,0,0,1,8.029-2.906s24.776,29.365,49.094,0a52.689,52.689,0,0,1,10.324,4.053C375.741,440.353,362.282,461.994,380.253,471.935Z" transform="translate(-284.129 -293.03)" fill="#e41f1c"/>
        <path id="Trazado_5748" data-name="Trazado 5748" d="M290.2,349.6" transform="translate(-280.718 -272.63)" fill="#271611"/>
        <path id="Trazado_5749" data-name="Trazado 5749" d="M324.8,266.5" transform="translate(-288.859 -253.077)" fill="#271611"/>
        <g id="Grupo_1637" data-name="Grupo 1637" transform="translate(6.881 91.422)">
          <g id="Grupo_1636" data-name="Grupo 1636">
            <path id="Trazado_5750" data-name="Trazado 5750" d="M293.147,371.635a3.135,3.135,0,0,1-3.212,3.135h0a3.212,3.212,0,0,1-3.135-3.135h0a3.135,3.135,0,0,1,3.135-3.135h0a3.135,3.135,0,0,1,3.212,3.135Z" transform="translate(-286.799 -368.499)" fill="#dddddc"/>
            <path id="Trazado_5751" data-name="Trazado 5751" d="M292.917,372.629a3.212,3.212,0,0,1-1.835.688,2.829,2.829,0,0,1-1.759-.765,2.294,2.294,0,0,1-.765-1.682h0a2.6,2.6,0,0,1,.765-1.759,2.217,2.217,0,0,1,.994-.612h-.382a3.212,3.212,0,0,0-3.135,2.982h0a3.135,3.135,0,0,0,3.135,3.212h0a3.135,3.135,0,0,0,3.059-2.294C292.994,372.553,292.994,372.553,292.917,372.629Z" transform="translate(-286.799 -368.499)" fill="#e9e8e8"/>
          </g>
          <path id="Trazado_5752" data-name="Trazado 5752" d="M293.394,370.947a1.147,1.147,0,0,1-1.147,1.147h0a1.147,1.147,0,0,1-1.147-1.147h0a1.147,1.147,0,0,1,2.294,0Z" transform="translate(-287.811 -368.805)" fill="#fff"/>
        </g>
        <g id="Grupo_1639" data-name="Grupo 1639" transform="translate(99.334 91.422)">
          <g id="Grupo_1638" data-name="Grupo 1638">
            <path id="Trazado_5753" data-name="Trazado 5753" d="M414.047,371.635a3.135,3.135,0,0,1-3.212,3.135h0a3.212,3.212,0,0,1-3.135-3.135h0a3.135,3.135,0,0,1,3.135-3.135h0a3.135,3.135,0,0,1,3.212,3.135Z" transform="translate(-407.699 -368.499)" fill="#dddddc"/>
            <path id="Trazado_5754" data-name="Trazado 5754" d="M413.741,372.629a2.524,2.524,0,0,1-3.518-.076,2.065,2.065,0,0,1-.765-1.682h0a2.294,2.294,0,0,1,.765-1.759,2.218,2.218,0,0,1,.994-.612h-.382a3.212,3.212,0,0,0-3.135,2.982h0a3.135,3.135,0,0,0,3.135,3.212h0a3.135,3.135,0,0,0,3.059-2.294C413.894,372.553,413.894,372.553,413.741,372.629Z" transform="translate(-407.699 -368.499)" fill="#e9e8e8"/>
          </g>
          <path id="Trazado_5755" data-name="Trazado 5755" d="M414.294,370.947a1.147,1.147,0,0,1-1.147,1.147h0A1.147,1.147,0,0,1,412,370.947h0a1.147,1.147,0,1,1,2.294,0Z" transform="translate(-408.711 -368.805)" fill="#fff"/>
        </g>
        <path id="Trazado_5756" data-name="Trazado 5756" d="M346.533,268.182s7.112,24.853,45.882,38.923c0,0,4.971,3.824,4.282,20.571,0,0,2.141-3.9,5.735,0,0,0,7.647-38.541-6.118-59.494,0,0-16.518-22.253-44.276-18.888C352.039,249.293,342.863,254.035,346.533,268.182Z" transform="translate(-293.769 -248.947)" fill="#323232"/>
        <path id="Trazado_5757" data-name="Trazado 5757" d="M339.957,268.182s-7.112,24.853-45.806,38.923c0,0-4.971,3.824-4.359,20.571,0,0-2.141-3.9-5.735,0,0,0-7.571-38.541,6.118-59.494,0,0,16.518-22.253,44.353-18.888C334.528,249.293,343.628,254.035,339.957,268.182Z" transform="translate(-278.781 -248.947)" fill="#323232"/>
      </g>
    </g>
  </g>
  <path id="Trazado_8606" data-name="Trazado 8606" d="M256.659,0H356.07a1.759,1.759,0,0,1,1.759,1.759V5.812H254.9V1.759A1.759,1.759,0,0,1,256.659,0Z" transform="translate(-59.977 0)" fill="#5d5d5d"/>
  <path id="Trazado_8607" data-name="Trazado 8607" d="M89.1,180.4V427.094H491.258V180.4ZM295.57,386.488c-36.018,0-65.153-38.541-65.153-85.953s29.135-85.953,65.153-85.953S360.8,253.047,360.8,300.535,331.588,386.488,295.57,386.488Z" transform="translate(-43.753 -153.176)" fill="#fff"/>
  <ellipse id="Elipse_311" data-name="Elipse 311" cx="65.229" cy="85.953" rx="65.229" ry="85.953" transform="translate(183.453 61.406)" fill="none" stroke="#c2202e" stroke-width="8.58"/>
</svg>
