<svg id="Selfie" xmlns="http://www.w3.org/2000/svg" width="174.834" height="251.091" viewBox="0 0 174.834 251.091">
  <path id="Trazado_5709" data-name="Trazado 5709" d="M33.547,112.828A26.5,26.5,0,0,0,35.371,117c.279.559.575,1.1.855,1.661.395.756.773,1.529,1.1,2.335v-8.122A24.065,24.065,0,0,1,33.547,112.828ZM113.433,13.87h-68.3c-8.023,0-14.517,6.872-14.517,15.372V189.509c0,.247,0,.51.016.74v.164c0,.115.016.23.016.345a1.448,1.448,0,0,0,.033.279v.066a5.7,5.7,0,0,0,.1.74,5.034,5.034,0,0,0,.082.526c.033.181.066.345.1.51a.148.148,0,0,0,.016.082c.033.164.066.329.115.493.049.2.115.411.164.608s.115.378.181.575c.016.066.049.132.066.2.066.181.132.345.2.51a16,16,0,0,0,1.069,2.2c.214.378.46.756.707,1.118a15.292,15.292,0,0,0,1.776,2.088c.164.164.329.312.493.46s.345.3.51.427a8.069,8.069,0,0,0,.871.658c.132.1.263.181.395.263.148.1.312.2.477.3s.329.2.493.279c.181.1.378.2.559.28a.126.126,0,0,0,.082.033c.181.1.362.164.543.247.148.066.3.132.444.181a3.261,3.261,0,0,0,.427.148,3.007,3.007,0,0,0,.411.132c.247.082.493.148.74.214.2.049.395.1.608.132a13.061,13.061,0,0,0,1.365.214,13.358,13.358,0,0,0,1.414.066h68.3c7.645,0,13.909-6.248,14.485-14.156,0-.132.016-.247.016-.378h0c0-.263.016-.526.016-.789V29.242C127.951,20.742,121.457,13.87,113.433,13.87Zm7.859,166.4H37.311V38.466h83.981v141.8ZM33.547,112.828A26.5,26.5,0,0,0,35.371,117c.279.559.575,1.1.855,1.661.395.756.773,1.529,1.1,2.335v-8.122A24.065,24.065,0,0,1,33.547,112.828Z" transform="translate(-3.843 -13.87)" fill="#848484"/>
  <rect id="Rectángulo_2394" data-name="Rectángulo 2394" width="92.448" height="141.804" transform="translate(29.522 24.596)" fill="#f2f2f2"/>
  <path id="Trazado_5710" data-name="Trazado 5710" d="M171.767,219.629,112.36,246.583s-7.04-6.944-10.148-11.416c-.937-1.365-15.074-3.056-16.192-4.618-10.8-7.218-14.419-9.651-24.99-18.907-7.135-6.264-15.076-16.737-19.68-24.957h65.189c8.007,0,14.517-6.872,14.517-15.356V107.883a36.69,36.69,0,0,1,5.458,5c-.493-2.17-.247-4.867-.378-7.185-.115-2.318-.625-4.373-.888-6.708-.395-2.811.51-5.393-.921-7.941-1.019-2.039-2.5-4.242-3.19-6.56v.427c-3.946-7.875-3.7-34.855-.082-39.426a.331.331,0,0,1,.115-.148,6.3,6.3,0,0,1,4.357-2.811,7.688,7.688,0,0,1,5.064.723v-.016c3.6,1.874,5.343,6.741,6.593,11.969,1.43,5.968,2.2,12.413,4.291,15.652,4.39,6.428,9.536,11.311,11.344,19.039a92.924,92.924,0,0,0,5.9,18.282c1.562,4.357,2.072,8.484,4.373,12.347,2.072,3.338,2.187,19.132,2.7,23,.789,6.691,0,54.793,0,58.772C165,201.871,165.318,201.871,171.767,219.629Z" transform="translate(3.068 4.507)" fill="#fad9b7"/>
  <path id="Trazado_5712" data-name="Trazado 5712" d="M83.344,22.932A3.732,3.732,0,1,1,79.612,19.2,3.74,3.74,0,0,1,83.344,22.932Z" transform="translate(25.309 -10.437)" fill="#9a9999"/>
  <g id="Grupo_1627" data-name="Grupo 1627" transform="translate(25.526 1.268)">
    <path id="Trazado_5723" data-name="Trazado 5723" d="M67.537,13.87l-1.019,24.6-5.869,141.8-1.019,24.579h-14.5c-8.023,0-14.517-6.872-14.517-15.339V29.242c0-8.5,6.494-15.372,14.517-15.372Z" transform="translate(-30.61 -13.87)" fill="#fff" opacity="0.23"/>
  </g>
  <g id="Grupo_1628" data-name="Grupo 1628" transform="translate(0 64.718)">
    <g id="Grupo_1640" data-name="Grupo 1640" transform="translate(41.385 -7.438)">
      <rect id="Rectángulo_2395" data-name="Rectángulo 2395" width="59.299" height="48.547" transform="translate(4.837 53.878)" fill="#313131"/>
      <rect id="Rectángulo_2396" data-name="Rectángulo 2396" width="13.609" height="11.516" transform="translate(26.829 76.391)" fill="#fabc99"/>
      <path id="Trazado_5740" data-name="Trazado 5740" d="M-129.276,243.48a13.354,13.354,0,0,1,2.871.31v-4.143h-13.609V250.87A10.839,10.839,0,0,1-129.276,243.48Z" transform="translate(166.843 -163.256)" fill="#d2d1d1" style="mix-blend-mode: multiply;isolation: isolate"/>
      <path id="Trazado_5741" data-name="Trazado 5741" d="M-118.028,246.016h-11.659s-23.318-1.253-27.8,22.942h67.266C-94.707,244.763-118.028,246.016-118.028,246.016Z" transform="translate(157.491 -159.853)" fill="#fabc99"/>
      <path id="Trazado_5742" data-name="Trazado 5742" d="M-97.852,230.664c0,19.8-11.582,35.854-27.976,35.854s-27.979-16.052-27.979-35.854,11.584-35.851,27.979-35.851S-97.852,210.862-97.852,230.664Z" transform="translate(159.463 -187.246)" fill="#fabc99"/>
      <g id="Grupo_1634" data-name="Grupo 1634" transform="translate(57.902 46.934)">
        <path id="Trazado_5743" data-name="Trazado 5743" d="M-119.615,225.476c-.588,3.121.527,5.95,2.49,6.317s4.028-1.859,4.616-4.978-.531-5.95-2.495-6.317S-119.029,222.357-119.615,225.476Z" transform="translate(119.772 -220.458)" fill="#fabc99"/>
        <path id="Trazado_5744" data-name="Trazado 5744" d="M-117.066,222.506s.129.063.361.147a.837.837,0,0,1,.375.183c.107.111.233.155.316.315a1.112,1.112,0,0,1,.232.448c.088.144.058.382.115.565a5.236,5.236,0,0,1-.132,1.369,6.19,6.19,0,0,1-.421,1.351,3.765,3.765,0,0,1-.623,1.007,2.066,2.066,0,0,1-.356.261c-.121.02-.258.111-.361.071-.212-.028-.373-.04-.373-.04a2.392,2.392,0,0,0,.307.266c.106.1.279.094.484.147a1.469,1.469,0,0,0,.668-.121A2.88,2.88,0,0,0-115.3,227.4a4.578,4.578,0,0,0,.674-1.623,4.437,4.437,0,0,0,.1-.9,3.8,3.8,0,0,0-.1-.893,2.446,2.446,0,0,0-.365-.807,3.761,3.761,0,0,0-.256-.332c-.115-.078-.224-.155-.333-.227a1.322,1.322,0,0,0-.645-.21.992.992,0,0,0-.456.015A3.646,3.646,0,0,0-117.066,222.506Z" transform="translate(120.756 -219.428)" fill="#d2d1d1" style="mix-blend-mode: multiply;isolation: isolate"/>
      </g>
      <g id="Grupo_1635" data-name="Grupo 1635" transform="translate(1.948 46.934)">
        <path id="Trazado_5745" data-name="Trazado 5745" d="M-148.963,225.476c.589,3.121-.527,5.95-2.49,6.317s-4.028-1.859-4.613-4.978.528-5.95,2.493-6.317S-149.546,222.357-148.963,225.476Z" transform="translate(156.222 -220.458)" fill="#fabc99"/>
        <path id="Trazado_5746" data-name="Trazado 5746" d="M-152.909,222.506s-.13.063-.361.147a.845.845,0,0,0-.375.183c-.106.111-.233.155-.316.315a1.111,1.111,0,0,0-.232.448c-.089.144-.058.382-.115.565a5.3,5.3,0,0,0,.132,1.369,6.363,6.363,0,0,0,.422,1.351,3.688,3.688,0,0,0,.622,1.007,1.981,1.981,0,0,0,.361.261c.117.02.255.111.356.071.213-.028.373-.04.373-.04a2.252,2.252,0,0,1-.307.266c-.1.1-.279.094-.481.147a1.469,1.469,0,0,1-.669-.121,2.893,2.893,0,0,1-1.177-1.075,4.638,4.638,0,0,1-.675-1.623,4.55,4.55,0,0,1-.094-.9,3.8,3.8,0,0,1,.1-.893,2.476,2.476,0,0,1,.365-.807c.089-.12.167-.233.256-.332l.333-.227a1.322,1.322,0,0,1,.646-.21.993.993,0,0,1,.456.015A3.665,3.665,0,0,1-152.909,222.506Z" transform="translate(156.634 -219.428)" fill="#d2d1d1" style="mix-blend-mode: multiply;isolation: isolate"/>
      </g>
      <path id="Trazado_5747" data-name="Trazado 5747" d="M-104.808,268.548H-149.55c7.821-6.047,2.094-19.944,2.094-19.944a29.191,29.191,0,0,1,4.725-1.8s14.626,17.915,29.127-.034a28.293,28.293,0,0,1,6.116,2.513S-115.446,262.547-104.808,268.548Z" transform="translate(161.74 -159.443)" fill="#c20e30"/>
      <path id="Trazado_5748" data-name="Trazado 5748" d="M-153.806,220.458" transform="translate(159.463 -173.523)" fill="#27150e"/>
      <path id="Trazado_5749" data-name="Trazado 5749" d="M-143.648,195.239" transform="translate(164.898 -187.018)" fill="#27150e"/>
      <g id="Grupo_1637" data-name="Grupo 1637" transform="translate(4.085 55.76)">
        <g id="Grupo_1636" data-name="Grupo 1636">
          <path id="Trazado_5750" data-name="Trazado 5750" d="M-151.035,228.1a1.9,1.9,0,0,1-1.9,1.9,1.9,1.9,0,0,1-1.9-1.9,1.894,1.894,0,0,1,1.9-1.9A1.894,1.894,0,0,1-151.035,228.1Z" transform="translate(154.83 -226.207)" fill="#dddddc"/>
          <path id="Trazado_5751" data-name="Trazado 5751" d="M-151.2,228.74a1.523,1.523,0,0,1-1.062.439,1.518,1.518,0,0,1-1.062-.439,1.5,1.5,0,0,1-.439-1.062v-.021a1.507,1.507,0,0,1,.439-1.061,1.519,1.519,0,0,1,.625-.375,1.924,1.924,0,0,0-.233-.014,1.894,1.894,0,0,0-1.9,1.9,1.9,1.9,0,0,0,1.9,1.9,1.9,1.9,0,0,0,1.821-1.363C-151.14,228.675-151.17,228.708-151.2,228.74Z" transform="translate(154.83 -226.207)" fill="#e8e8e8" style="mix-blend-mode: multiply;isolation: isolate"/>
        </g>
        <path id="Trazado_5752" data-name="Trazado 5752" d="M-152.2,227.325a.7.7,0,0,1-.7.7.7.7,0,0,1-.7-.7.7.7,0,0,1,.7-.7A.7.7,0,0,1-152.2,227.325Z" transform="translate(155.491 -225.981)" fill="#fff"/>
      </g>
      <g id="Grupo_1639" data-name="Grupo 1639" transform="translate(58.828 55.76)">
        <g id="Grupo_1638" data-name="Grupo 1638">
          <path id="Trazado_5753" data-name="Trazado 5753" d="M-115.373,228.1a1.9,1.9,0,0,1-1.9,1.9,1.9,1.9,0,0,1-1.9-1.9,1.894,1.894,0,0,1,1.9-1.9A1.9,1.9,0,0,1-115.373,228.1Z" transform="translate(119.169 -226.207)" fill="#dddddc"/>
          <path id="Trazado_5754" data-name="Trazado 5754" d="M-115.54,228.74a1.517,1.517,0,0,1-1.061.439,1.518,1.518,0,0,1-1.062-.439,1.506,1.506,0,0,1-.441-1.062v-.021a1.508,1.508,0,0,1,.441-1.061,1.509,1.509,0,0,1,.625-.375,1.962,1.962,0,0,0-.233-.014,1.894,1.894,0,0,0-1.9,1.9,1.9,1.9,0,0,0,1.9,1.9,1.9,1.9,0,0,0,1.821-1.363C-115.479,228.675-115.509,228.708-115.54,228.74Z" transform="translate(119.169 -226.207)" fill="#e8e8e8" style="mix-blend-mode: multiply;isolation: isolate"/>
        </g>
        <path id="Trazado_5755" data-name="Trazado 5755" d="M-116.541,227.325a.7.7,0,0,1-.7.7.7.7,0,0,1-.7-.7.7.7,0,0,1,.7-.7A.7.7,0,0,1-116.541,227.325Z" transform="translate(119.83 -225.981)" fill="#fff"/>
      </g>
      <path id="Trazado_5756" data-name="Trazado 5756" d="M-136.936,201.645s4.217,15.168,27.14,23.766c0,0,2.915,2.33,2.525,12.537,0,0,1.24-2.424,3.362,0,0,0,4.493-23.507-3.577-36.3,0,0-9.783-13.63-26.239-11.544C-133.724,190.1-139.126,192.956-136.936,201.645Z" transform="translate(168.21 -189.884)" fill="#313131"/>
      <path id="Trazado_5757" data-name="Trazado 5757" d="M-121.949,201.645s-4.215,15.168-27.139,23.766c0,0-2.915,2.33-2.524,12.537,0,0-1.242-2.424-3.363,0,0,0-4.492-23.507,3.577-36.3,0,0,9.785-13.63,26.239-11.544C-125.159,190.1-119.757,192.956-121.949,201.645Z" transform="translate(158.17 -189.884)" fill="#313131"/>
    </g>
    <path id="Trazado_5724" data-name="Trazado 5724" d="M57.633,73.171a12.274,12.274,0,0,1-14.83,8.96L23.65,77.4a12.284,12.284,0,0,1-8.96-14.846h0a12.274,12.274,0,0,1,14.83-8.96l19.154,4.735a12.258,12.258,0,0,1,8.96,14.846Z" transform="translate(-14.334 -53.234)" fill="#fad9b7"/>
    <path id="Trazado_5725" data-name="Trazado 5725" d="M42.679,86.534c1.956,4.373-.3,9.634-5.047,11.755l-.674.312c-4.751,2.121-10.177.312-12.133-4.061L19.546,82.785c-1.956-4.373.3-9.634,5.047-11.772l.674-.3c4.751-2.121,10.177-.312,12.133,4.061Z" transform="translate(-11.43 -42.544)" fill="#fad9b7"/>
    <path id="Trazado_5726" data-name="Trazado 5726" d="M39.2,118.091a.584.584,0,0,1-.148.066l-.3-.559v.691h-.016a11.953,11.953,0,0,1-5.1,1.184,9.132,9.132,0,0,1-8.3-4.653l-.395-.74-6.067-11.624A8.36,8.36,0,0,1,18,97.77l.049-.444c.016-.132.049-.279.082-.444a.409.409,0,0,1,.016-.132v-.016c.049-.2.1-.411.148-.625l.016-.016a3.007,3.007,0,0,1,.132-.411c.049-.132.1-.279.148-.411a10.647,10.647,0,0,1,.986-1.924,11.826,11.826,0,0,1,4.554-4.127,11.988,11.988,0,0,1,5.228-1.381h.066a5.09,5.09,0,0,0,.707.033h.378a8.968,8.968,0,0,1,7.481,4.62l.756,1.463,5.689,10.917C46.833,109.427,44.482,115.346,39.2,118.091Z" transform="translate(-12 -30.943)" fill="#fad9b7"/>
    <path id="Trazado_5727" data-name="Trazado 5727" d="M37.88,127.551c-.016,0-.016,0-.033.016-.049.033-.115.066-.164.1a11.173,11.173,0,0,1-5.13,1.282,7.66,7.66,0,0,1-7-3.814l-5.458-10.473a7.062,7.062,0,0,1-.362-5.458,2.609,2.609,0,0,1,.115-.329,5.413,5.413,0,0,1,.279-.641c.066-.148.132-.279.2-.427.082-.148.164-.312.247-.46a10.769,10.769,0,0,1,3.469-3.535v.016l.395.756a9.132,9.132,0,0,0,8.3,4.653,11.838,11.838,0,0,0,5.113-1.184v-.033h.016v-.691l.3.559,4.373,8.385C44.506,120.054,42.434,125.068,37.88,127.551Z" transform="translate(-11.103 -20.657)" fill="#fad9b7"/>
  </g>
  <path id="Trazado_5732" data-name="Trazado 5732" d="M84.609,22.166a1.768,1.768,0,0,1-1.776,1.776H51.6a1.779,1.779,0,0,1-1.776-1.776h0A1.768,1.768,0,0,1,51.6,20.39H82.834a1.768,1.768,0,0,1,1.776,1.776Z" transform="translate(8.523 -9.67)" fill="#cdcccc"/>
  <path id="Trazado_5733" data-name="Trazado 5733" d="M129.326,146.712c-2.351,11.015-4.209,12.051-8.286,16.622-12.364,13.876-62.887,5.606-76.369,3.107-1.233-1.874-2.368-3.716-3.321-5.458h65.189c7.333,0,13.4-5.771,14.353-13.235.033-.247.066-.477.082-.74.033-.263.033-.51.049-.773a3.876,3.876,0,0,0,.033-.625V82.23a21.386,21.386,0,0,1,3.091,2.614C124.13,84.844,130.9,139.346,129.326,146.712Z" transform="translate(3.068 30.161)" fill="#8a8a8a" opacity="0.25"/>
  <g id="Grupo_1629" data-name="Grupo 1629" transform="translate(117.432 47.827)" opacity="0.38">
    <path id="Trazado_5734" data-name="Trazado 5734" d="M90.3,52.562a99.237,99.237,0,0,0,0,22.853,31.374,31.374,0,0,0,2.137,8.944V88.7A16.214,16.214,0,0,1,90.3,86.118c-2.663-3.864-4.044-8.977-4.538-14.3V62.163c.608-7.168,2.433-13.662,4.538-17a5.606,5.606,0,0,1,2.137-2.2v2.154C91.5,46.314,90.775,49.043,90.3,52.562Z" transform="translate(-85.76 -42.96)" fill="#728285"/>
  </g>
  <g id="Grupo_1630" data-name="Grupo 1630" transform="translate(26.793 78.966)" opacity="0.29">
    <path id="Trazado_5735" data-name="Trazado 5735" d="M48.764,76.368c-2.433,3.617-6.955,5.261-11.443,5.557a24.126,24.126,0,0,1-3.781-.033c.97,2.992,2.631,5.426,3.781,8.188a15.459,15.459,0,0,1,1.266,5.179,7.252,7.252,0,0,1-1.266,4.571,11.628,11.628,0,0,1-3.946,3.5,17.345,17.345,0,0,1-2.746,1.282v-1.5A9.809,9.809,0,0,0,33.376,101,8.658,8.658,0,0,0,35.1,91.625l-1.726-3.847L30.63,81.629V76.105l1.693.411c.362.082.691.148,1.052.214a12.2,12.2,0,0,0,13.778-9.158,12.036,12.036,0,0,0,.033-5.672C50.507,65.451,51.2,72.521,48.764,76.368Z" transform="translate(-30.63 -61.9)" fill="#728285"/>
  </g>
  <g id="Grupo_1631" data-name="Grupo 1631" transform="translate(27.04 143.76)" opacity="0.29">
    <path id="Trazado_5736" data-name="Trazado 5736" d="M37.208,107.689c-.148.312-.312.641-.51.97a9.656,9.656,0,0,1-3.453,3.37c-.279.181-.559.345-.855.526l-1.611-3.074c.049-.016.1-.049.148-.066a12.175,12.175,0,0,0,2.318-1.562,10.792,10.792,0,0,0,3.765-6.544c.066.148.132.28.181.411A6.9,6.9,0,0,1,37.208,107.689Z" transform="translate(-30.78 -101.31)" fill="#728285"/>
  </g>
  <g id="Grupo_1632" data-name="Grupo 1632" transform="translate(26.777 166.383)" opacity="0.29">
    <path id="Trazado_5737" data-name="Trazado 5737" d="M30.669,125.559c-.033-.411-.049-.822-.049-1.25v-4.028a10.538,10.538,0,0,0,4.8-5.212H35.8C37.2,119.065,34.385,123.143,30.669,125.559Z" transform="translate(-30.62 -115.07)" fill="#728285"/>
  </g>
</svg>
